<?xml version="1.0" encoding="UTF-8" standalone="no"?>
<!-- Created with Inkscape (http://www.inkscape.org/) -->

<svg
   xmlns:dc="http://purl.org/dc/elements/1.1/"
   xmlns:cc="http://creativecommons.org/ns#"
   xmlns:rdf="http://www.w3.org/1999/02/22-rdf-syntax-ns#"
   xmlns:svg="http://www.w3.org/2000/svg"
   xmlns="http://www.w3.org/2000/svg"
   xmlns:sodipodi="http://sodipodi.sourceforge.net/DTD/sodipodi-0.dtd"
   xmlns:inkscape="http://www.inkscape.org/namespaces/inkscape"
   width="210mm"
   height="297mm"
   viewBox="0 0 744.09448819 1052.3622047"
   id="svg4179"
   version="1.1"
   inkscape:version="0.91 r13725"
   sodipodi:docname="tsuru-logo-white.svg">
  <defs
     id="defs4181" />
  <sodipodi:namedview
     id="base"
     pagecolor="#ffffff"
     bordercolor="#666666"
     borderopacity="1.0"
     inkscape:pageopacity="0.0"
     inkscape:pageshadow="2"
     inkscape:zoom="0.35"
     inkscape:cx="-89.285714"
     inkscape:cy="520"
     inkscape:document-units="px"
     inkscape:current-layer="layer1"
     showgrid="false"
     inkscape:window-width="1276"
     inkscape:window-height="778"
     inkscape:window-x="4"
     inkscape:window-y="250"
     inkscape:window-maximized="1" />
  <metadata
     id="metadata4184">
    <rdf:RDF>
      <cc:Work
         rdf:about="">
        <dc:format>image/svg+xml</dc:format>
        <dc:type
           rdf:resource="http://purl.org/dc/dcmitype/StillImage" />
        <dc:title></dc:title>
      </cc:Work>
    </rdf:RDF>
  </metadata>
  <g
     inkscape:label="Layer 1"
     inkscape:groupmode="layer"
     id="layer1">
    <path
       style="fill:#ffffff;fill-opacity:1"
       id="path4793"
       d="m 389.35714,290.49792 c -0.1,-0.1 -0.2,-0.1 -0.3,0 l -25.8,25.5 c -0.1,0.1 -0.1,0.2 0,0.3 l 5,6.3 -0.9,7 c 0,0.1 0,0.2 0.1,0.2 l 0.1,0 c 0.1,0 0.1,0 0.2,-0.1 l 21.7,-39 c 0.1,0 0,-0.2 -0.1,-0.2 z m 7.5,9 -5.1,-9 c 0,-0.1 -0.1,-0.1 -0.2,-0.1 -0.1,0 -0.1,0 -0.2,0.1 l -3.4,6.2 0,0.2 c 0,0.1 0.1,0.1 0.1,0.1 l 8.5,2.7 0.1,0 c 0.1,0 0.1,0 0.2,-0.1 l 0,-0.1 z m -31.4,30.4 c 0.1,0 0.2,-0.1 0.2,-0.2 l 0.8,-6.7 0,-0.2 -32,-40.2 -0.2,0 c 0,0 -0.1,0.1 -0.1,0.2 l 3.3,33.6 -2.4,13.4 30.4,0 z"
       inkscape:connector-curvature="0" />
  </g>
</svg>
